<svg width="512" height="512" viewBox="0 0 512 512" fill="none" xmlns="http://www.w3.org/2000/svg">
<rect width="512" height="512" fill="white"/>
<path d="m 247.11487,1.11703 c -5.7,1.6 -12.9,9.1 -14.4,15 -1.6,6.2 -1.5,8.7 0.3,13.9 1.9,5.3 6.3,10.1 11.6,12.4 l 3.9,1.8 v 7.4 7.3 h 5 5 v -7.3 -7.3 l 3.6,-1.3 c 9.3,-3.4 15.8,-15.4 13.4,-24.9 -3.2,-13.1 -15.7,-20.6 -28.4,-17 z" id="path824" style="fill:#ff4b2d;fill-opacity:1;stroke:none;stroke-width:0.1" />
<path d="m 158.01487,70.81703 c -5,2.2 -10.1,7.9 -11.5,12.8 -0.8,2.7 -1,24.8 -0.8,73 l 0.3,69.1 3,4.4 c 1.7,2.3 5.1,5.4 7.5,6.8 l 4.5,2.5 h 92.5 92.6 l 4.9,-2.6 c 3.5,-1.8 5.9,-3.9 8,-7.4 l 3,-4.8 0.3,-67 c 0.2,-44.7 -0.1,-68.8 -0.8,-72.2 -1.3,-6.3 -5.8,-12.1 -11.4,-14.6 -3.9,-1.8 -8.7,-1.9 -96.1,-1.9 -86.9,0 -92.2,0.1 -96,1.9 z m 60,38.2 c 10.7,2 18.3,7.8 22.7,17.4 3.2,7 3.2,18 0,25 -5,10.9 -15.4,17.6 -27.4,17.6 -12.1,0.1 -22.2,-6.1 -27.5,-16.9 -3.7,-7.6 -3.9,-19.3 -0.5,-26 4.9,-9.3 12.6,-15.2 22.3,-17.1 2.4,-0.5 4.4,-0.9 4.5,-1 0,-0.1 2.7,0.4 5.9,1 z m 91.1,3.2 c 10,5.1 15.7,15.1 15.8,27.3 0,5 -0.7,7.5 -3.2,12.7 -1.8,3.6 -4.7,7.8 -6.5,9.3 -15.9,13.4 -39.5,8.5 -48.3,-10.1 -2.6,-5.5 -3.2,-15 -1.4,-21.5 2.4,-8.7 9.6,-16.2 18.7,-19.6 6.1,-2.3 18.6,-1.3 24.9,1.9 z m -16.2,79.3 c 2,2 2,4.8 0,6.8 -1.3,1.4 -6.3,1.6 -39.3,1.6 -28,0 -38,-0.3 -38.9,-1.2 -0.7,-0.7 -1.2,-2.4 -1.2,-3.8 0,-1.4 0.5,-3.1 1.2,-3.8 0.9,-0.9 10.9,-1.2 38.9,-1.2 33,0 38,0.2 39.3,1.6 z" id="path826" style="fill:#192640;fill-opacity:1;stroke:none;stroke-width:0.1" />
<path d="m 203.71487,121.01703 c -14.3,7.1 -14.4,28.1 -0.3,35.6 9.1,4.8 20.7,2 26.6,-6.5 2.6,-3.8 3,-5.2 3,-11.2 0,-6 -0.4,-7.4 -3,-11.2 -5.8,-8.3 -17.1,-11.2 -26.3,-6.7 z" id="path828" style="fill:#192640;fill-opacity:1;stroke:none;stroke-width:0.1" />
<path d="m 286.01487,120.31703 c -6.5,3 -11.5,11 -11.5,18.6 0,11.2 8.8,20 20,20 6.7,0 10.7,-1.8 15.2,-6.8 8,-8.8 6.1,-23.4 -4,-30.3 -4.3,-2.9 -15,-3.7 -19.7,-1.5 z" id="path830" style="fill:#192640;fill-opacity:1;stroke:none;stroke-width:0.1" />
<path d="m 131.11487,120.11703 c -5.8,3 -12.8,10.5 -16.2,17.3 -2.6,5.5 -2.9,6.9 -2.9,16.5 0,9.3 0.3,11.2 2.7,16.2 1.4,3.1 4.5,7.7 6.9,10.3 4.1,4.5 12.5,10.2 13.5,9.3 0.2,-0.3 0.3,-16.5 0.2,-36 l -0.3,-35.6 z" id="path832" style="fill:#192640;fill-opacity:1;stroke:none;stroke-width:0.1" />
<path d="m 372.51487,153.91703 c 0,19.8 0.4,36 0.8,36 1.8,0 9.9,-5.9 13,-9.4 7.7,-8.8 11.4,-21.8 9.4,-32.8 -2.2,-11.9 -9.9,-23 -19.1,-27.7 l -4.1,-2.1 z" id="path834" style="fill:#192640;fill-opacity:1;stroke:none;stroke-width:0.1" />
<path d="m 209.01487,305.31703 c -4.9,2.2 -5.8,4.9 -6.3,17.8 -0.6,15.4 0.3,21.9 3.3,25.2 3.8,4.2 6.4,4.2 20.9,0.1 l 13.4,-3.8 3.5,2.2 c 5.9,3.6 12.3,3.8 19.5,0.6 l 6,-2.7 13,3.7 c 14.3,4.1 16.8,4.1 20.7,-0.1 3,-3.3 3.9,-9.8 3.3,-25.2 -0.5,-13 -1.3,-15.3 -6.7,-17.8 -3.6,-1.7 -4.1,-1.6 -27.2,4.9 -3.1,0.9 -4.3,0.7 -8.9,-1.6 -6.8,-3.4 -10.7,-3.4 -18.1,-0.1 l -5.9,2.7 -12.8,-3.7 c -14.4,-4.1 -13.7,-4 -17.7,-2.2 z" id="path838" style="fill:#192640;fill-opacity:1;stroke:none;stroke-width:0.1" />
<path d="m 247.21487,372.01703 c -1.5,1.2 -3.4,3.4 -4.2,5 -5.5,10.6 6.6,22 17.4,16.5 8.6,-4.5 8.6,-17.7 0,-22.2 -4,-2 -9.9,-1.7 -13.2,0.7 z" id="path840" style="fill:#ff4b2d;fill-opacity:1;stroke:none;stroke-width:0.1" />
<path d="m 251.11487,416.01703 c -6.1,1.7 -10.3,8.3 -9.2,14.3 0.8,4 5.6,9.3 9.2,10.2 6.5,1.7 13.4,-2.6 15.5,-9.6 2.6,-8.5 -6.7,-17.5 -15.5,-14.9 z" id="path842" style="fill:#ff4b2d;fill-opacity:1;stroke:none;stroke-width:0.1" />
<path id="path836-6" style="fill:#192640;fill-opacity:1;stroke:none;stroke-width:0.0999997" d="m 183.07342,250.16016 -4.8999,7.00048 c -1.87721,2.70669 -3.00033,4.29306 -4.38721,6.2754 -7.8373,10.51237 -9.25303,11.82633 -12.94189,12.72363 -30.9,7.89999 -44.20029,14.10087 -63.300295,29.40087 -19.299998,15.6 -35.099318,40.59922 -41.799315,66.19923 -3.999998,15.49999 -4.700783,25.90038 -4.300778,70.40039 l 0.300293,41.50048 3.099607,6.49952 c 5.1,10.69999 13.500255,17.80048 24.300293,20.50048 0.01093,0.003 0.04017,0.005 0.05127,0.007 l 2.07861,0.99171 22.019535,0.0381 c 21.7739,0.31723 62.94694,0.3803 150.71634,0.26367 87.76725,0.11663 128.9394,0.0536 150.71332,-0.26367 l 22.02105,-0.0381 2.07855,-0.99171 c 0.0111,-0.003 0.0403,-0.004 0.0513,-0.007 10.8,-2.7 19.2003,-9.80049 24.3003,-20.50048 l 3.0996,-6.49952 0.3003,-41.50048 c 0.39998,-44.50001 -0.30075,-54.9004 -4.3008,-70.40039 -6.69997,-25.60001 -22.49932,-50.59923 -41.7993,-66.19923 -19.10002,-15.3 -32.4003,-21.50088 -63.3003,-29.40087 -3.68887,-0.8973 -5.10457,-2.21126 -12.94192,-12.72363 -1.38683,-1.98234 -2.50995,-3.56871 -4.3872,-6.2754 l -4.90133,-7.00048 h -70.09867 c -0.32325,0 -0.51263,0.004 -0.8349,0.004 -0.32295,-6e-5 -0.51263,-0.004 -0.83648,-0.004 z m 34.1001,35.6997 3.35451,1.16309 3.71632,1.43701 c 10.02015,3.87379 19.75358,5.706 29.76563,5.57812 10.01145,0.12768 19.74442,-1.70452 29.76412,-5.57812 l 3.71633,-1.43701 3.35445,-1.16309 23.49907,5.80078 c 11.27333,2.79649 18.35708,4.61145 20.7114,5.24268 1.03733,0.31978 2.23823,0.67537 2.92673,0.91845 0.0172,0.64605 -15.94943,40.61489 -35.63813,89.43897 -19.70002,49.2 -37.1001,92.49922 -38.6001,96.19922 l -2.49022,6.271 -6.18023,0.22851 -1.06492,0.0395 -1.06493,-0.0395 -6.17872,-0.22851 -2.49023,-6.271 c -1.5,-3.7 -18.90007,-46.99922 -38.6001,-96.19922 -19.68786,-48.82191 -35.65533,-88.78797 -35.63965,-89.4375 0.69016,-0.24372 1.89305,-0.60052 2.93408,-0.92139 2.3584,-0.63223 9.43607,-2.44567 20.70557,-5.24121 z m -97.49707,32.2837 c 0.28884,2.66503 0.56836,39.72814 0.56836,85.61718 v 86.54443 l -15.6709,-0.3457 c -20.399998,-0.3 -23.199313,-1.09863 -26.799313,-7.09863 -1.900005,-3 -2.000977,-5.30137 -2.000977,-46.90137 0,-35.2 0.3,-45.1 1.5,-51 4.899997,-23.7 15.200977,-42.29941 32.00098,-57.89941 3.48087,-3.21817 7.6332,-6.76077 10.40185,-8.9165 z m 268.6655,0 c 2.7687,2.15573 6.921,5.69833 10.4019,8.9165 16.8,15.6 27.10095,34.19941 32.00093,57.89941 1.2,5.9 1.5,15.8 1.5,51 0,41.6 -0.10095,43.90137 -2.00093,46.90137 -3.6,6 -6.3993,6.79863 -26.7993,7.09863 l -15.67095,0.3457 v -86.54443 c 0,-45.88905 0.27953,-82.95216 0.56835,-85.61718 z" />
</svg>
